
		<svg xmlns="http://www.w3.org/2000/svg" xmlns:xlink="http://www.w3.org/1999/xlink" version="1.1" width="3179.1044776119397" height="1567.1641791044776">
			
			<g transform="scale(8.955223880597014) translate(10, 10)">
				<defs id="SvgjsDefs1097"><linearGradient id="SvgjsLinearGradient1104"><stop id="SvgjsStop1105" stop-color="#2d388a" offset="0"></stop><stop id="SvgjsStop1106" stop-color="#00aeef" offset="1"></stop></linearGradient></defs><g id="SvgjsG1098" featureKey="root" fill="#ffffff"></g><g id="SvgjsG1099" featureKey="container1" fill="#868686" transform="matrix(0.6606388688087463,0,0,0.6606388688087463,20,5)"><defs xmlns="http://www.w3.org/2000/svg"></defs><g xmlns="http://www.w3.org/2000/svg">  <path d="M102.174,199.588c53.8,0,97.413-43.613,97.413-97.413S155.974,4.762,102.174,4.762S4.761,48.375,4.761,102.175    S48.375,199.588,102.174,199.588z M102.174,9.762c50.957,0,92.413,41.457,92.413,92.413s-41.456,92.413-92.413,92.413    c-50.957,0-92.413-41.457-92.413-92.413S51.218,9.762,102.174,9.762z"></path>  <path d="M102.174,191.585c49.38,0,89.41-40.03,89.41-89.41s-40.03-89.41-89.41-89.41c-49.38,0-89.41,40.03-89.41,89.41    S52.794,191.585,102.174,191.585z M102.174,14.765c48.198,0,87.41,39.212,87.41,87.41s-39.212,87.41-87.41,87.41    c-48.198,0-87.41-39.212-87.41-87.41S53.976,14.765,102.174,14.765z"></path>  <path d="M102.174,204.35c56.339,0,102.174-45.835,102.174-102.175S158.513,0,102.174,0C45.835,0,0,45.835,0,102.175    S45.835,204.35,102.174,204.35z M102.174,2c55.236,0,100.174,44.938,100.174,100.175S157.411,202.35,102.174,202.35    C46.938,202.35,2,157.411,2,102.175S46.938,2,102.174,2z"></path></g></g><g id="SvgjsG1100" featureKey="symbol1" fill="url(#SvgjsLinearGradient1104)" transform="matrix(0.8747864365577698,0,0,0.8747864365577698,44.25213570905541,28.83182816695143)"><g id="SvgjsG1101"><defs></defs><title></title><path d="M85.32,62.07A68.22,68.22,0,0,1,79,66.23c-.54.31-1.08.62-1.63.92l-.2.11-.11,0,0,0h0l-.07,0-.1.05c-.14.08-.32.17-.52.26a14,14,0,0,1-1.32.52c-.48.17-1,.31-1.48.45a30.59,30.59,0,0,1-3.14.65c-1.08.18-2.19.31-3.33.41-2.27.2-4.65.28-7.16.32s-5.15.06-7.92.14c-1.38,0-2.8.11-4.25.21l-2.19.18c-.74.07-1.48.16-2.25.27a61,61,0,0,0-9,2,90.87,90.87,0,0,0-8.63,3c-1.39.57-2.76,1.16-4.12,1.77a39.89,39.89,0,0,0,9.58,7.16c2-1,4-2,6-2.83a48.67,48.67,0,0,1,7.14-2.39c.57-.14,1.17-.28,1.77-.4s1.2-.23,1.8-.33c1.2-.21,2.4-.38,3.59-.53,2.38-.31,4.73-.53,7-.79s4.53-.52,6.73-.9c1.09-.2,2.18-.42,3.26-.69a29.78,29.78,0,0,0,3.27-1c.56-.2,1.12-.43,1.7-.69l.89-.44c.3-.15.62-.33,1-.53a11.4,11.4,0,0,0,1.08-.7c.1-.06.2-.15.31-.22L77,72.1l.09-.07.07-.06.1-.09.19-.18L79,70.22q3.14-3,6.22-6.08c1-1.07,2.09-2.14,3.13-3.23.16-.52.3-1,.43-1.57Q87.07,60.78,85.32,62.07Z" style="fill-rule: evenodd;"></path><path d="M80.24,49.11l-1.68-.06-.42,0-.21,0h-.16c-.19,0-.42,0-.65,0-1,0-2-.13-3.14-.26-2.21-.26-4.54-.66-6.94-1.12s-4.87-1-7.43-1.54-5.19-1.11-7.9-1.64c-1.36-.26-2.73-.52-4.13-.76l-2.12-.35-1.06-.17L43.3,43c-2.94-.4-5.92-.63-8.95-.74s-6.09-.09-9.19,0-6.25.33-9.43.61c-1.75.15-3.51.33-5.27.51a40.83,40.83,0,0,0-.46,6.1,41.64,41.64,0,0,0,.31,5c2.25-.38,4.44-.75,6.61-1.08,3-.48,6-.9,8.93-1.24s5.77-.59,8.56-.72,5.52-.19,8.15-.08l1,0,1,0,2,.12,3.92.31c2.59.23,5.13.49,7.62.73s4.93.48,7.33.65,4.74.28,7.12.25c1.2,0,2.39-.06,3.72-.21.34,0,.68-.08,1.06-.15l.14,0h.07l.06,0,.21-.06.43-.11,1.7-.46c2.26-.6,4.46-1.21,6.61-1.8l3.47-1v-.24c0-.24,0-.48,0-.72-1.06.11-2.15.19-3.24.24C84.63,49.15,82.47,49.17,80.24,49.11Z" style="fill-rule: evenodd;"></path><path d="M79.08,74.93c-.5.46-1,.91-1.52,1.35l-.19.17-.08.07,0,0-.07.06-.09.08-.46.37-.58.4-.63.4c-.44.26-.9.51-1.37.75-.94.47-1.94.89-3,1.28s-2.08.73-3.17,1c-2.17.64-4.46,1.18-6.86,1.71s-4.92,1-7.51,1.58c-1.29.28-2.61.56-3.93.87-.67.15-1.34.3-2,.47l-1,.24-1,.27c-2.11.56-4.21,1.22-6.28,2a40.05,40.05,0,0,0,45.6-19Q82,72.23,79.08,74.93Z" style="fill-rule: evenodd;"></path><path d="M80.29,26.58l.77.66.78.61,1.56,1.24c.63.5,1.25,1,1.87,1.55A40.08,40.08,0,0,0,58.79,10.48,218.06,218.06,0,0,1,77.17,24Z" style="fill-rule: evenodd;"></path><path d="M82.65,33.53l-1.57-1.14c-.26-.18-.52-.38-.79-.56l-.8-.51c-1.07-.68-2.15-1.36-3.24-2A266.39,266.39,0,0,0,48.52,14.44q-4.16-1.92-8.41-3.69A39.84,39.84,0,0,0,27,16.82Q37.06,19.4,46.5,22.47a301,301,0,0,1,29,11.08c1.12.5,2.23,1,3.33,1.51l.83.38.82.32c.56.21,1.1.43,1.65.66q3.27,1.32,6.39,2.84l.19.1c-.16-.63-.34-1.24-.53-1.85Q85.44,35.56,82.65,33.53Z" style="fill-rule: evenodd;"></path><path d="M87.76,43.12c-2.08-.66-4.21-1.39-6.38-2.17l-1.64-.59-.82-.3-.81-.24-3.37-1c-4.56-1.37-9.33-2.81-14.28-4.27-2.48-.72-5-1.46-7.58-2.19L49,31.26l-2-.54-1-.27-1-.26c-1.37-.32-2.72-.63-4.09-.93l-4.13-.89q-4.15-.87-8.45-1.69c-3.21-.61-6.47-1.21-9.78-1.77a39.76,39.76,0,0,0-5.79,10.22q7.17.66,14,1.38c3,.31,5.86.63,8.72,1l4.24.5c1.39.16,2.78.33,4.12.51l1,.13,1,.15,2,.32,4,.65L59.44,41c5.07.83,9.93,1.62,14.6,2.32l3.48.5.88.12c.28,0,.57,0,.85.05l1.69.1q3.36.21,6.56.52l2.23.23-.15-1.15C89,43.51,88.37,43.32,87.76,43.12Z" style="fill-rule: evenodd;"></path><path d="M85.94,55.23a63.91,63.91,0,0,1-6.49,2.12l-1.68.43-.42.1-.11,0,0,0-.06,0h-.06l-.58.15c-.44.09-.92.17-1.43.24s-1,.12-1.56.16c-1.08.09-2.19.12-3.32.13s-2.31,0-3.48-.08c-2.38-.11-4.85-.31-7.41-.54s-5.23-.5-8-.72c-1.39-.12-2.79-.22-4.22-.31-.71,0-1.43-.09-2.16-.12l-1.09,0-1.13,0a75.12,75.12,0,0,0-9.21.4c-3.09.32-6.18.82-9.28,1.44S18,60,15,60.82l-3.08.85a40.21,40.21,0,0,0,4.88,10.11l1.76-.65c2.75-1,5.48-1.9,8.19-2.7s5.42-1.47,8.08-2a66.5,66.5,0,0,1,7.81-1.08l.95-.06,1,0c.65,0,1.3-.06,1.95-.09,1.29,0,2.57-.08,3.84-.1,2.54,0,5,0,7.45-.08s4.79-.08,7.12-.22c1.17-.07,2.32-.16,3.46-.29s2.3-.3,3.47-.52c.59-.12,1.18-.25,1.79-.4s1.23-.35,1.92-.59c.34-.12.7-.26,1.09-.43l.15-.07.16-.07.15-.07.11-.06.42-.24,1.66-1c2.21-1.3,4.38-2.61,6.5-3.95q2-1.24,3.91-2.51l.12-1C88.53,54.17,87.25,54.72,85.94,55.23Z" style="fill-rule: evenodd;"></path></g></g><g id="SvgjsG1102" featureKey="text1" fill="#0161dc" transform="matrix(1.2373461723327637,0,0,1.2373461723327637,173.29381554278802,47.39504566071968)"><path d="M8.12 9.72 c3.0266 0 4.54 1.1733 4.54 3.52 c0 1.3467 -0.64666 2.3466 -1.94 3 c0.88 0.25334 1.5367 0.69668 1.97 1.33 s0.65 1.3967 0.65 2.29 c0 1.28 -0.46334 2.29 -1.39 3.03 s-2.1434 1.11 -3.65 1.11 l-6.92 0 l0 -14.28 l6.74 0 z M7.72 15.5 c1.2667 0 1.9 -0.56666 1.9 -1.7 c0 -1.0933 -0.70666 -1.64 -2.12 -1.64 l-2.98 0 l0 3.34 l3.2 0 z M7.9 21.56 c1.5333 0 2.3 -0.62666 2.3 -1.88 c0 -1.36 -0.74666 -2.04 -2.24 -2.04 l-3.44 0 l0 3.92 l3.38 0 z M18.6 9.72 l0 5.92 l5.58 -5.92 l3.92 0 l-5.58 5.64 l6.12 8.64 l-3.94 0 l-4.3 -6.42 l-1.8 1.82 l0 4.6 l-3.14 0 l0 -14.28 l3.14 0 z M36.3 9.38 c2.1066 0 3.8034 0.7 5.09 2.1 s1.93 3.2134 1.93 5.44 c0 2.1734 -0.64666 3.9534 -1.94 5.34 s-2.9866 2.08 -5.08 2.08 c-2.1066 0 -3.8034 -0.69334 -5.09 -2.08 s-1.93 -3.1666 -1.93 -5.34 c0 -2.2134 0.64666 -4.0234 1.94 -5.43 s2.9866 -2.11 5.08 -2.11 z M32.42 16.92 c0 1.44 0.33998 2.5966 1.02 3.47 s1.6333 1.31 2.86 1.31 c1.2 0 2.1466 -0.43 2.84 -1.29 s1.04 -2.0234 1.04 -3.49 c0 -1.5333 -0.34334 -2.7334 -1.03 -3.6 s-1.6433 -1.3 -2.87 -1.3 c-1.2 0 -2.1434 0.43334 -2.83 1.3 s-1.03 2.0666 -1.03 3.6 z  M55.94 9.38 c1.7467 0 3.1366 0.40002 4.17 1.2 s1.55 1.9333 1.55 3.4 l-3.04 0 c-0.04 -0.72 -0.28334 -1.26 -0.73 -1.62 s-1.1367 -0.54 -2.07 -0.54 c-0.65334 0 -1.18 0.14334 -1.58 0.43 s-0.6 0.68332 -0.6 1.19 c0 0.41334 0.12334 0.71334 0.37 0.9 s0.59666 0.35332 1.05 0.49998 s1.2467 0.36 2.38 0.64 c1.1867 0.29334 2.1 0.61334 2.74 0.96 s1.1267 0.79 1.46 1.33 s0.5 1.2033 0.5 1.99 c0 0.90666 -0.24 1.7133 -0.72 2.42 s-1.18 1.2433 -2.1 1.61 s-1.96 0.55 -3.12 0.55 c-1.7733 0 -3.23 -0.44334 -4.37 -1.33 s-1.71 -2.1034 -1.71 -3.65 l0 -0.1 l3.04 0 c0 0.84 0.28666 1.49 0.86 1.95 s1.3333 0.69 2.28 0.69 c0.84 0 1.5167 -0.15 2.03 -0.45 s0.77 -0.74334 0.77 -1.33 c0 -0.38666 -0.14 -0.71332 -0.42 -0.97998 s-0.65334 -0.48332 -1.12 -0.64998 s-1.2533 -0.37666 -2.36 -0.63 c-1.28 -0.32 -2.2134 -0.66 -2.8 -1.02 s-1.0333 -0.79666 -1.34 -1.31 s-0.46 -1.13 -0.46 -1.85 c0 -0.89334 0.25666 -1.6733 0.77 -2.34 s1.1833 -1.16 2.01 -1.48 s1.68 -0.48 2.56 -0.48 z M68.48 13.38 c0.97334 0 1.84 0.22664 2.6 0.67998 s1.3567 1.11 1.79 1.97 s0.65 1.85 0.65 2.97 c0 0.10666 -0.0066602 0.28 -0.02 0.52 l-7.46 0 c0.02666 0.82666 0.24332 1.47 0.64998 1.93 s1.03 0.69 1.87 0.69 c0.52 0 0.99666 -0.13 1.43 -0.39 s0.71 -0.57666 0.83 -0.95 l2.5 0 c-0.73334 2.32 -2.3466 3.48 -4.84 3.48 c-0.94666 -0.01334 -1.8233 -0.22 -2.63 -0.62 s-1.45 -1.0233 -1.93 -1.87 s-0.72 -1.83 -0.72 -2.95 c0 -1.0533 0.24334 -2.0134 0.73 -2.88 s1.1333 -1.5133 1.94 -1.94 s1.6767 -0.64 2.61 -0.64 z M70.66 17.72 c-0.13334 -0.77334 -0.38 -1.3333 -0.74 -1.68 s-0.87334 -0.52 -1.54 -0.52 c-0.69334 0 -1.24 0.19666 -1.64 0.59 s-0.63334 0.93 -0.7 1.61 l4.62 0 z M81.22000000000001 13.38 c0.24 0 0.44668 0.03334 0.62002 0.1 l0 2.64 c-0.30666 -0.06666 -0.64666 -0.1 -1.02 -0.1 c-1.8667 0 -2.8 1.1067 -2.8 3.32 l0 4.66 l-2.84 0 l0 -10.34 l2.7 0 l0 1.92 l0.04 0 c0.28 -0.66666 0.72334 -1.2 1.33 -1.6 s1.2633 -0.6 1.97 -0.6 z M84.96000000000001 13.66 l2.18 7.06 l0.04 0 l2.18 -7.06 l2.82 0 l-3.5 10.34 l-3.16 0 l-3.54 -10.34 l2.98 0 z M96.28000000000002 9.72 l0 2.34 l-2.84 0 l0 -2.34 l2.84 0 z M96.28000000000002 13.66 l0 10.34 l-2.84 0 l0 -10.34 l2.84 0 z M103.48000000000002 13.38 c1.4 0 2.54 0.35664 3.42 1.07 s1.36 1.6633 1.44 2.85 l-2.78 0 c-0.18666 -1.1867 -0.88666 -1.78 -2.1 -1.78 c-0.74666 0 -1.3367 0.30666 -1.77 0.92 s-0.65 1.4267 -0.65 2.44 c0 0.97334 0.20666 1.76 0.62 2.36 s0.99334 0.9 1.74 0.9 c1.2933 0 2.0466 -0.7 2.26 -2.1 l2.74 0 c-0.18666 1.3733 -0.71666 2.4234 -1.59 3.15 s-2.0034 1.09 -3.39 1.09 c-1.5333 0 -2.7866 -0.49 -3.76 -1.47 s-1.46 -2.2566 -1.46 -3.83 c0 -1.7067 0.48 -3.0666 1.44 -4.08 s2.24 -1.52 3.84 -1.52 z M114.78000000000002 13.38 c0.97334 0 1.84 0.22664 2.6 0.67998 s1.3567 1.11 1.79 1.97 s0.65 1.85 0.65 2.97 c0 0.10666 -0.0066602 0.28 -0.02 0.52 l-7.46 0 c0.02666 0.82666 0.24332 1.47 0.64998 1.93 s1.03 0.69 1.87 0.69 c0.52 0 0.99666 -0.13 1.43 -0.39 s0.71 -0.57666 0.83 -0.95 l2.5 0 c-0.73334 2.32 -2.3466 3.48 -4.84 3.48 c-0.94666 -0.01334 -1.8233 -0.22 -2.63 -0.62 s-1.45 -1.0233 -1.93 -1.87 s-0.72 -1.83 -0.72 -2.95 c0 -1.0533 0.24334 -2.0134 0.73 -2.88 s1.1333 -1.5133 1.94 -1.94 s1.6767 -0.64 2.61 -0.64 z M116.96000000000001 17.72 c-0.13334 -0.77334 -0.38 -1.3333 -0.74 -1.68 s-0.87334 -0.52 -1.54 -0.52 c-0.69334 0 -1.24 0.19666 -1.64 0.59 s-0.63334 0.93 -0.7 1.61 l4.62 0 z M125.72000000000003 13.38 c1.3867 0 2.47 0.28002 3.25 0.84002 s1.2167 1.38 1.31 2.46 l-2.7 0 c-0.04 -0.49334 -0.22 -0.85 -0.54 -1.07 s-0.78666 -0.33 -1.4 -0.33 c-0.53334 0 -0.93 0.08 -1.19 0.24 s-0.39 0.4 -0.39 0.72 c0 0.24 0.08666 0.44 0.26 0.6 s0.43668 0.3 0.79002 0.42 s0.74334 0.22 1.17 0.3 c1.2933 0.25334 2.2066 0.51334 2.74 0.78 s0.92334 0.58666 1.17 0.96 s0.37 0.83334 0.37 1.38 c0 1.16 -0.42334 2.05 -1.27 2.67 s-1.9967 0.93 -3.45 0.93 c-1.52 0 -2.7034 -0.32666 -3.55 -0.98 s-1.2833 -1.54 -1.31 -2.66 l2.7 0 c0 0.53334 0.20666 0.95668 0.62 1.27 s0.93334 0.47 1.56 0.47 c0.53334 0 0.97668 -0.11666 1.33 -0.35 s0.53 -0.55668 0.53 -0.97002 c0 -0.26666 -0.11 -0.48666 -0.33 -0.66 s-0.53 -0.32668 -0.93 -0.46002 s-1.02 -0.28668 -1.86 -0.46002 c-0.66666 -0.13334 -1.26 -0.31334 -1.78 -0.54 s-0.91666 -0.52332 -1.19 -0.88998 s-0.41 -0.81666 -0.41 -1.35 c0 -0.68 0.16334 -1.2733 0.49 -1.78 s0.82666 -0.89 1.5 -1.15 s1.51 -0.39 2.51 -0.39 z"></path></g><g id="SvgjsG1103" featureKey="text3" fill="#2d388a" transform="matrix(0.5433413982391357,0,0,0.5433413982391357,174.07674412428628,89.77178807595273)"><path d="M1.7 6.16 l5.02 0 c2.7 0 4.12 1.06 4.12 3.52 c0 1.8 -0.66 2.66 -1.78 3.18 c1.22 0.42 2.2 1.26 2.2 3.26 c0 2.92 -1.68 3.88 -4.28 3.88 l-5.28 0 l0 -13.84 z M6.82 13.64 l-3.58 0 l0 5 l3.68 0 c1.68 0 2.78 -0.54 2.78 -2.58 c0 -2.14 -1.82 -2.42 -2.88 -2.42 z M6.66 7.52 l-3.42 0 l0 4.78 l3.56 0 c1.74 0 2.46 -0.82 2.46 -2.48 c0 -1.62 -0.84 -2.3 -2.6 -2.3 z M15.46 15.84 c0 2.16 1.2 3 3.24 3 c2.16 0 3.38 -0.84 3.38 -3 l0 -9.68 l1.52 0 l0 9.64 c0 3.16 -1.74 4.4 -4.9 4.4 c-3.04 0 -4.78 -1.22 -4.78 -4.4 l0 -9.64 l1.54 0 l0 9.68 z M34.800000000000004 6.34 l-0.14 1.3 s-2.78 -0.34 -3.94 -0.34 c-1.96 0 -3 0.7 -3 2.26 c0 1.8 0.96 2.1 3.38 2.64 c2.76 0.62 3.98 1.3 3.98 3.72 c0 3.06 -1.68 4.26 -4.42 4.26 c-1.64 0 -4.38 -0.44 -4.38 -0.44 l0.16 -1.28 s2.72 0.36 4.14 0.36 c1.96 0 2.96 -0.86 2.96 -2.78 c0 -1.56 -0.82 -2 -3.08 -2.44 c-2.86 -0.62 -4.3 -1.3 -4.3 -3.94 c0 -2.68 1.76 -3.72 4.46 -3.72 c1.64 0 4.18 0.4 4.18 0.4 z M37.74000000000001 20 l0 -13.84 l1.54 0 l0 13.84 l-1.54 0 z M42.66000000000001 20 l0 -13.84 l2.88 0 l5.3 12.48 l0.42 0 l0 -12.48 l1.52 0 l0 13.84 l-2.82 0 l-5.38 -12.48 l-0.38 0 l0 12.48 l-1.54 0 z M56.18000000000001 20 l0 -13.84 l8.42 0 l0 1.36 l-6.88 0 l0 4.78 l5.68 0 l0 1.34 l-5.68 0 l0 5 l6.88 0 l0 1.36 l-8.42 0 z M75.14 6.34 l-0.14 1.3 s-2.78 -0.34 -3.94 -0.34 c-1.96 0 -3 0.7 -3 2.26 c0 1.8 0.96 2.1 3.38 2.64 c2.76 0.62 3.98 1.3 3.98 3.72 c0 3.06 -1.68 4.26 -4.42 4.26 c-1.64 0 -4.38 -0.44 -4.38 -0.44 l0.16 -1.28 s2.72 0.36 4.14 0.36 c1.96 0 2.96 -0.86 2.96 -2.78 c0 -1.56 -0.82 -2 -3.08 -2.44 c-2.86 -0.62 -4.3 -1.3 -4.3 -3.94 c0 -2.68 1.76 -3.72 4.46 -3.72 c1.64 0 4.18 0.4 4.18 0.4 z M85.98 6.34 l-0.14 1.3 s-2.78 -0.34 -3.94 -0.34 c-1.96 0 -3 0.7 -3 2.26 c0 1.8 0.96 2.1 3.38 2.64 c2.76 0.62 3.98 1.3 3.98 3.72 c0 3.06 -1.68 4.26 -4.42 4.26 c-1.64 0 -4.38 -0.44 -4.38 -0.44 l0.16 -1.28 s2.72 0.36 4.14 0.36 c1.96 0 2.96 -0.86 2.96 -2.78 c0 -1.56 -0.82 -2 -3.08 -2.44 c-2.86 -0.62 -4.3 -1.3 -4.3 -3.94 c0 -2.68 1.76 -3.72 4.46 -3.72 c1.64 0 4.18 0.4 4.18 0.4 z  M93.32000000000002 20 l0 -13.84 l2.78 0 l3.92 11.7 l3.92 -11.7 l2.78 0 l0 13.84 l-1.54 0 l0 -12.2 l-0.28 0 l-4.02 11.7 l-1.72 0 l-4.02 -11.7 l-0.28 0 l0 12.2 l-1.54 0 z M108.90000000000002 20 l3.8 -13.84 l3.36 0 l3.8 13.84 l-1.52 0 l-1 -3.56 l-5.92 0 l-1 3.56 l-1.52 0 z M113.86000000000001 7.48 l-2.1 7.58 l5.24 0 l-2.1 -7.58 l-1.04 0 z M130.34000000000003 18.46 l0.06 1.32 c-0.98 0.2 -2.5 0.42 -3.82 0.42 c-4.14 0 -5.06 -2.52 -5.06 -7.08 c0 -4.68 0.9 -7.16 5.06 -7.16 c1.42 0 2.94 0.26 3.82 0.44 l-0.06 1.3 c-0.9 -0.16 -2.52 -0.36 -3.6 -0.36 c-3.08 0 -3.62 1.84 -3.62 5.78 c0 3.86 0.5 5.7 3.66 5.7 c1.12 0 2.6 -0.18 3.56 -0.36 z M141.50000000000003 20 l0 -6.26 l-7.04 0 l0 6.26 l-1.54 0 l0 -13.84 l1.54 0 l0 6.2 l7.04 0 l0 -6.2 l1.52 0 l0 13.84 l-1.52 0 z M146.42000000000002 20 l0 -13.84 l1.54 0 l0 13.84 l-1.54 0 z M151.34 20 l0 -13.84 l2.88 0 l5.3 12.48 l0.42 0 l0 -12.48 l1.52 0 l0 13.84 l-2.82 0 l-5.38 -12.48 l-0.38 0 l0 12.48 l-1.54 0 z M164.86 20 l0 -13.84 l8.42 0 l0 1.36 l-6.88 0 l0 4.78 l5.68 0 l0 1.34 l-5.68 0 l0 5 l6.88 0 l0 1.36 l-8.42 0 z  M187.94000000000003 20 l-7.62 0 l0 -13.84 l1.54 0 l0 12.46 l6.08 0 l0 1.38 z M189.90000000000003 20 l0 -13.84 l8.42 0 l0 1.36 l-6.88 0 l0 4.78 l5.68 0 l0 1.34 l-5.68 0 l0 5 l6.88 0 l0 1.36 l-8.42 0 z M199.74000000000004 20 l3.8 -13.84 l3.36 0 l3.8 13.84 l-1.52 0 l-1 -3.56 l-5.92 0 l-1 3.56 l-1.52 0 z M204.70000000000005 7.48 l-2.1 7.58 l5.24 0 l-2.1 -7.58 l-1.04 0 z M218.34000000000003 14.7 l-3.92 0 l0 5.3 l-1.54 0 l0 -13.84 l5.12 0 c2.9 0 4.42 1.28 4.42 4.2 c0 2.04 -0.8 3.46 -2.54 4.02 l2.66 5.62 l-1.7 0 z M220.84000000000003 10.36 c0 -1.9 -0.9 -2.84 -2.84 -2.84 l-3.58 0 l0 5.82 l3.6 0 c2.08 0 2.82 -1.24 2.82 -2.98 z M225.20000000000002 20 l0 -13.84 l2.88 0 l5.3 12.48 l0.42 0 l0 -12.48 l1.52 0 l0 13.84 l-2.82 0 l-5.38 -12.48 l-0.38 0 l0 12.48 l-1.54 0 z M238.72000000000003 20 l0 -13.84 l1.54 0 l0 13.84 l-1.54 0 z M243.64000000000001 20 l0 -13.84 l2.88 0 l5.3 12.48 l0.42 0 l0 -12.48 l1.52 0 l0 13.84 l-2.82 0 l-5.38 -12.48 l-0.38 0 l0 12.48 l-1.54 0 z M262.64000000000004 14.3 l0 -1.38 l3.82 0 l0 6.8 c-0.42 0.08 -2.98 0.48 -4.5 0.48 c-4.24 0 -5.36 -2.6 -5.36 -7.08 c0 -4.6 1.16 -7.16 5.32 -7.16 c2.1 0 4.54 0.52 4.54 0.52 l-0.06 1.28 s-2.48 -0.42 -4.3 -0.42 c-3.2 0 -3.9 1.86 -3.9 5.78 c0 3.84 0.68 5.72 3.88 5.72 c1 0 2.34 -0.18 2.86 -0.28 l0 -4.26 l-2.3 0 z"></path></g>
			</g>
		</svg>
	